HIERARCHY
ROOT Hips
{
	OFFSET -0.001795 -0.223333 0.028219
	CHANNELS 6 Xposition Yposition Zposition Zrotation Yrotation Xrotation 
	JOINT LeftUpLeg
	{
		OFFSET 0.069520 -0.091406 -0.006815
		CHANNELS 3 Zrotation Yrotation Xrotation
		JOINT LeftLeg
		{
			OFFSET 0.034277 -0.375199 -0.004496
			CHANNELS 3 Zrotation Yrotation Xrotation
			JOINT LeftFoot
			{
				OFFSET -0.013596 -0.397961 -0.043693
				CHANNELS 3 Zrotation Yrotation Xrotation
				JOINT LeftToe
				{
					OFFSET 0.026358 -0.055791 0.119288
					CHANNELS 3 Zrotation Yrotation Xrotation
					End Site
					{
						OFFSET 0.000000 0.000000 0.000000
					}
				}
			}
		}
	}
	JOINT RightUpLeg
	{
		OFFSET -0.067670 -0.090522 -0.004320
		CHANNELS 3 Zrotation Yrotation Xrotation
		JOINT RightLeg
		{
			OFFSET -0.038290 -0.382569 -0.008850
			CHANNELS 3 Zrotation Yrotation Xrotation
			JOINT RightFoot
			{
				OFFSET 0.015774 -0.398415 -0.042312
				CHANNELS 3 Zrotation Yrotation Xrotation
				JOINT RightToe
				{
					OFFSET -0.025372 -0.048144 0.123348
					CHANNELS 3 Zrotation Yrotation Xrotation
					End Site
					{
						OFFSET 0.000000 0.000000 0.000000
					}
				}
			}
		}
	}
	JOINT Spine
	{
		OFFSET -0.002533 0.108963 -0.026696
		CHANNELS 3 Zrotation Yrotation Xrotation
		JOINT Spine1
		{
			OFFSET 0.005487 0.135180 0.001092
			CHANNELS 3 Zrotation Yrotation Xrotation
			JOINT Spine2
			{
				OFFSET 0.001457 0.052922 0.025425
				CHANNELS 3 Zrotation Yrotation Xrotation
				JOINT Neck
				{
					OFFSET -0.002778 0.213870 -0.042857
					CHANNELS 3 Zrotation Yrotation Xrotation
					JOINT Head
					{
						OFFSET 0.005152 0.064970 0.051349
						CHANNELS 3 Zrotation Yrotation Xrotation
						End Site
						{
							OFFSET 0.000000 0.000000 0.000000
						}
					}
				}
				JOINT LeftShoulder
				{
					OFFSET 0.078845 0.121749 -0.034090
					CHANNELS 3 Zrotation Yrotation Xrotation
					JOINT LeftArm
					{
						OFFSET 0.090977 0.030469 -0.008868
						CHANNELS 3 Zrotation Yrotation Xrotation
						JOINT LeftForeArm
						{
							OFFSET 0.259612 -0.012772 -0.027456
							CHANNELS 3 Zrotation Yrotation Xrotation
							JOINT LeftHand
							{
								OFFSET 0.249234 0.008986 -0.001171
								CHANNELS 3 Zrotation Yrotation Xrotation
								End Site
								{
									OFFSET 0.000000 0.000000 0.000000
								}
							}
						}
					}
				}
				JOINT RightShoulder
				{
					OFFSET -0.081759 0.118833 -0.038615
					CHANNELS 3 Zrotation Yrotation Xrotation
					JOINT RightArm
					{
						OFFSET -0.096012 0.032551 -0.009143
						CHANNELS 3 Zrotation Yrotation Xrotation
						JOINT RightForeArm
						{
							OFFSET -0.253742 -0.013329 -0.021401
							CHANNELS 3 Zrotation Yrotation Xrotation
							JOINT RightHand
							{
								OFFSET -0.255298 0.007772 -0.005559
								CHANNELS 3 Zrotation Yrotation Xrotation
								End Site
								{
									OFFSET 0.000000 0.000000 0.000000
								}
							}
						}
					}
				}
			}
		}
	}
}
MOTION
Frames: 14
Frame Time: 0.050000
0.000000 0.961957 0.000000 7.153076 26.335103 15.062855 7.147985 -0.877665 -6.554801 -7.467606 0.276891 3.576927 6.998565 18.310937 17.501347 0.000000 0.000000 0.000000 -9.299398 -1.320211 -24.045411 4.396936 -1.024235 7.623367 -5.979626 -12.333465 15.567976 0.000000 0.000000 0.000000 13.928614 -5.511980 19.771330 -0.168780 1.045601 -18.375008 1.325865 -2.172371 25.553766 19.159526 -7.291600 -27.465897 0.000000 0.000000 0.000000 -9.075362 -29.562482 10.739706 -51.138947 -35.648127 6.758434 -9.165142 -49.614113 5.560218 0.000000 0.000000 0.000000 20.977285 17.346705 12.958684 42.153036 43.849664 8.729048 -14.284590 17.359424 -0.893508 0.000000 0.000000 0.000000 
-0.001941 0.961952 0.003521 8.345869 26.977619 16.888089 6.215646 -0.905927 -7.710180 -6.366570 0.196952 1.714001 6.837694 18.941647 21.224088 0.000000 0.000000 0.000000 -11.027466 -1.943006 -24.638329 7.047505 -1.593669 6.256769 -7.161721 -14.373963 15.077598 0.000000 0.000000 0.000000 14.008444 -5.212494 18.283909 0.745772 0.790505 -17.184695 1.241902 -1.146185 24.429495 22.164752 -9.605037 -25.218079 0.000000 0.000000 0.000000 -9.962917 -30.831046 11.148928 -48.053785 -36.367591 6.548690 -7.551702 -50.770932 4.705369 0.000000 0.000000 0.000000 23.934005 15.587930 13.212061 42.210472 42.425743 7.890754 -18.298729 19.367022 -1.394520 0.000000 0.000000 0.000000 
-0.003089 0.961498 0.006568 7.491261 24.451060 16.102136 6.056716 -0.808308 -6.650203 -5.645233 0.219949 2.055215 6.442560 18.193000 20.594139 0.000000 0.000000 0.000000 -9.914949 -1.441146 -25.168998 7.158708 -1.664740 7.757155 -7.343741 -15.257738 14.072301 0.000000 0.000000 0.000000 13.651595 -5.184211 19.168664 -0.125650 0.988636 -17.371218 2.502475 -1.054221 23.692560 21.481711 -9.317023 -25.211288 0.000000 0.000000 0.000000 -8.931246 -29.540239 10.721817 -47.708485 -38.449530 7.362473 -6.019672 -49.050310 4.030023 0.000000 0.000000 0.000000 24.140813 14.690287 12.138245 42.425140 40.569283 7.317888 -16.985730 21.769561 -1.470057 0.000000 0.000000 0.000000 
-0.003761 0.962730 0.008937 7.924766 24.510904 16.172771 5.431782 -0.763367 -6.472113 -4.389518 0.146360 3.134559 6.618881 18.397487 20.567668 0.000000 0.000000 0.000000 -10.252096 -1.438355 -24.287251 7.836214 -1.809759 7.348944 -6.838188 -14.334953 14.174687 0.000000 0.000000 0.000000 13.862989 -5.324387 19.462758 0.181453 0.900910 -17.206577 2.210214 -2.116147 22.837825 21.069830 -9.199323 -24.987415 0.000000 0.000000 0.000000 -8.412420 -29.917034 11.038166 -47.461240 -38.250783 7.364016 -3.211133 -50.210837 2.937399 0.000000 0.000000 0.000000 23.926802 14.876412 11.733668 43.689804 40.213420 7.776788 -18.241153 22.042347 -1.675281 0.000000 0.000000 0.000000 
-0.003882 0.962773 0.010920 7.955172 23.546078 15.753239 5.124192 -0.680467 -5.521126 -4.995257 0.196913 3.330370 7.358671 19.123859 20.732828 0.000000 0.000000 0.000000 -10.054526 -1.207938 -23.570233 7.527959 -1.714398 7.499185 -6.443188 -13.785454 13.956221 0.000000 0.000000 0.000000 13.341197 -5.392845 20.564758 1.173910 0.648349 -18.755423 1.792078 -2.737494 23.375207 20.213352 -8.813031 -25.100994 0.000000 0.000000 0.000000 -8.274242 -30.540120 11.471962 -46.136129 -39.393825 7.569036 -1.531185 -49.744414 2.289315 0.000000 0.000000 0.000000 23.584659 15.082730 11.375224 43.841861 39.545151 7.620374 -18.024059 22.571481 -1.739830 0.000000 0.000000 0.000000 
-0.003625 0.963275 0.012555 8.010317 22.623629 15.840833 5.311839 -0.680438 -5.398021 -5.071112 0.212106 3.800839 6.891301 18.614391 21.290161 0.000000 0.000000 0.000000 -9.849499 -1.068114 -23.645934 7.262704 -1.629977 7.676410 -5.826792 -12.882946 12.760933 0.000000 0.000000 0.000000 12.843621 -5.202344 20.611473 1.374056 0.581566 -19.010386 1.785926 -3.294679 23.373672 20.185828 -8.999290 -24.900921 0.000000 0.000000 0.000000 -6.477381 -30.002926 11.148095 -47.170753 -41.955449 8.871903 1.127384 -48.204502 1.199524 0.000000 0.000000 0.000000 23.339493 14.634172 10.689230 44.595947 39.004325 7.672839 -17.668196 23.961119 -1.817355 0.000000 0.000000 0.000000 
-0.003159 0.963206 0.014216 8.183963 22.450690 15.720593 5.046300 -0.660053 -5.361916 -5.099167 0.216554 3.830365 6.980902 18.796256 21.921403 0.000000 0.000000 0.000000 -9.704026 -0.948049 -22.916006 6.989927 -1.536517 7.348130 -6.048982 -13.366056 12.305076 0.000000 0.000000 0.000000 12.664067 -5.154391 20.695726 1.859750 0.455709 -19.239917 1.486628 -4.126398 23.371519 19.653764 -8.783781 -24.903157 0.000000 0.000000 0.000000 -5.244172 -29.819548 11.000485 -47.503994 -43.803191 9.810621 3.369709 -47.573265 0.314011 0.000000 0.000000 0.000000 23.428761 14.841261 10.531748 43.814309 37.849442 6.999975 -16.795326 25.127401 -1.821306 0.000000 0.000000 0.000000 
-0.002642 0.963093 0.016102 8.024331 21.479330 15.564300 5.038939 -0.644156 -5.202924 -5.136968 0.233359 4.018605 6.551066 18.208875 21.703615 0.000000 0.000000 0.000000 -9.282262 -0.733030 -22.566983 6.831154 -1.462171 7.235519 -5.905585 -13.299935 11.412924 0.000000 0.000000 0.000000 12.321141 -4.975444 20.635018 1.880449 0.436408 -19.341350 1.620905 -4.125781 23.313982 19.713145 -9.134718 -24.082356 0.000000 0.000000 0.000000 -4.245165 -29.402368 10.736747 -48.338344 -45.004182 10.632010 4.776679 -47.413805 -0.224018 0.000000 0.000000 0.000000 23.806461 14.607624 10.283147 42.874268 36.387653 6.151008 -15.667460 26.600595 -1.759360 0.000000 0.000000 0.000000 
-0.002071 0.962780 0.018306 8.044350 21.348106 15.265514 4.781605 -0.621423 -5.126581 -5.147785 0.233482 4.349568 6.558925 18.156737 21.364764 0.000000 0.000000 0.000000 -9.292066 -0.672109 -21.847561 6.771729 -1.433228 7.037006 -5.651737 -12.842764 11.283073 0.000000 0.000000 0.000000 12.350435 -4.891379 20.351273 2.258798 0.321526 -18.933847 1.082353 -4.500194 23.190238 18.925722 -8.706443 -24.017903 0.000000 0.000000 0.000000 -4.759921 -29.431863 10.866538 -48.130956 -45.553505 10.921747 4.538974 -47.537991 -0.076303 0.000000 0.000000 0.000000 23.302854 14.842898 10.149276 42.429997 35.137817 5.643447 -14.639728 27.205326 -1.648705 0.000000 0.000000 0.000000 
-0.001464 0.962497 0.020558 7.910059 20.553429 14.837325 4.649372 -0.573167 -4.532703 -5.338502 0.257318 4.920945 6.825660 18.228777 20.447553 0.000000 0.000000 0.000000 -9.077320 -0.538565 -21.497196 6.940767 -1.466980 7.281498 -5.652781 -13.005518 10.681266 0.000000 0.000000 0.000000 12.437097 -4.943292 20.694927 1.939845 0.407059 -19.512307 1.159713 -4.453763 23.720236 18.826759 -8.696371 -24.135204 0.000000 0.000000 0.000000 -4.574087 -29.429553 10.876947 -49.694885 -46.026404 11.687988 3.727085 -48.621501 0.381282 0.000000 0.000000 0.000000 22.995263 14.637597 9.826908 42.051483 33.827102 5.052727 -13.540884 28.197437 -1.506762 0.000000 0.000000 0.000000 
-0.000965 0.961647 0.022467 7.931355 20.213143 14.803721 4.461060 -0.547129 -4.294868 -5.685417 0.289773 5.226855 6.808776 18.110477 20.043847 0.000000 0.000000 0.000000 -9.021991 -0.508239 -21.553818 6.933433 -1.492759 7.817376 -5.403396 -12.590412 10.050169 0.000000 0.000000 0.000000 12.540338 -4.878204 20.392835 1.831182 0.419644 -19.230715 0.685680 -4.947833 23.856180 18.247981 -8.509892 -23.806022 0.000000 0.000000 0.000000 -4.701877 -29.477858 10.991373 -50.903709 -46.152260 12.282804 2.462364 -48.835518 1.043663 0.000000 0.000000 0.000000 22.788685 14.481076 9.480763 42.198707 33.161514 4.873255 -12.841149 28.267996 -1.381271 0.000000 0.000000 0.000000 
-0.000518 0.960790 0.023833 7.728822 19.203915 14.658085 4.525497 -0.549568 -4.368879 -6.291411 0.356404 6.312084 6.715807 17.709130 18.729629 0.000000 0.000000 0.000000 -8.512941 -0.327650 -21.652448 7.203201 -1.567214 8.416508 -5.481654 -12.917428 9.339906 0.000000 0.000000 0.000000 12.866280 -4.892992 20.292740 1.402044 0.511059 -19.226970 0.304531 -4.901995 24.068289 17.710905 -8.555077 -22.714259 0.000000 0.000000 0.000000 -5.593308 -29.404467 11.191984 -51.873927 -45.130297 12.204533 0.397249 -49.454110 2.088341 0.000000 0.000000 0.000000 23.151100 14.112642 9.145079 41.926199 32.195381 4.444462 -12.298946 28.425087 -1.287718 0.000000 0.000000 0.000000 
-0.000222 0.959924 0.024798 7.707883 18.394548 14.487665 4.461383 -0.558001 -4.667886 -6.958090 0.435500 7.623712 7.003453 17.857264 17.810154 0.000000 0.000000 0.000000 -8.469147 -0.245736 -21.325155 7.635859 -1.690294 8.980582 -5.421115 -12.953509 8.223972 0.000000 0.000000 0.000000 13.123865 -4.913536 20.283605 1.103614 0.578417 -19.415926 -0.150965 -4.989525 24.596647 17.509156 -8.560269 -22.560267 0.000000 0.000000 0.000000 -6.026255 -29.514984 11.383881 -52.660045 -44.499924 12.207058 -0.657630 -49.336847 2.642174 0.000000 0.000000 0.000000 23.532936 13.777930 8.843653 41.835518 31.748457 4.220256 -11.970274 28.261608 -1.216450 0.000000 0.000000 0.000000 
0.000130 0.959226 0.025531 7.520932 17.646015 14.134167 4.727168 -0.612740 -5.522947 -7.640141 0.528626 9.660225 6.996864 17.658330 16.826439 0.000000 0.000000 0.000000 -8.166285 -0.093200 -20.547126 7.684814 -1.679836 9.016105 -5.456931 -13.143718 7.782068 0.000000 0.000000 0.000000 13.636248 -4.999307 20.238386 0.794785 0.634679 -18.995476 -0.395378 -4.460409 24.369419 17.250699 -8.661208 -21.514007 0.000000 0.000000 0.000000 -7.585869 -30.088824 11.924349 -52.787515 -43.032562 11.567932 -1.969474 -48.474560 3.166665 0.000000 0.000000 0.000000 23.892550 13.281062 8.589443 41.473234 31.172815 3.938582 -12.079409 27.605979 -1.210707 0.000000 0.000000 0.000000 
